<?xml version="1.0" encoding="UTF-8" standalone="no"?>
<!-- Created with Inkscape (http://www.inkscape.org/) -->

<svg
   xmlns:dc="http://purl.org/dc/elements/1.1/"
   xmlns:cc="http://creativecommons.org/ns#"
   xmlns:rdf="http://www.w3.org/1999/02/22-rdf-syntax-ns#"
   xmlns:svg="http://www.w3.org/2000/svg"
   xmlns="http://www.w3.org/2000/svg"
   xmlns:sodipodi="http://sodipodi.sourceforge.net/DTD/sodipodi-0.dtd"
   xmlns:inkscape="http://www.inkscape.org/namespaces/inkscape"
   width="193.68669"
   height="45.23138"
   viewBox="0 0 193.68669 45.231379"
   id="svg3635"
   version="1.1"
   inkscape:version="0.91 r13725"
   sodipodi:docname="brembo.svg">
  <defs
     id="defs3637">
    <inkscape:perspective
       id="perspective10"
       inkscape:persp3d-origin="372.04723 : 350.78737 : 1"
       inkscape:vp_z="744.09447 : 526.18107 : 1"
       inkscape:vp_y="0 : 999.99995 : 0"
       inkscape:vp_x="0 : 526.18106 : 1"
       sodipodi:type="inkscape:persp3d" />
    <inkscape:perspective
       sodipodi:type="inkscape:persp3d"
       inkscape:vp_x="0 : 526.18106 : 1"
       inkscape:vp_y="0 : 999.99995 : 0"
       inkscape:vp_z="744.09447 : 526.18107 : 1"
       inkscape:persp3d-origin="372.04723 : 350.78737 : 1"
       id="perspective2464" />
  </defs>
  <sodipodi:namedview
     id="base"
     pagecolor="#ffffff"
     bordercolor="#666666"
     borderopacity="1.0"
     inkscape:pageopacity="0.0"
     inkscape:pageshadow="2"
     inkscape:zoom="4.6845878"
     inkscape:cx="96.593344"
     inkscape:cy="22.365691"
     inkscape:document-units="px"
     inkscape:current-layer="layer1"
     showgrid="false"
     fit-margin-top="0"
     fit-margin-left="0"
     fit-margin-right="0"
     fit-margin-bottom="0"
     units="px"
     inkscape:window-width="1280"
     inkscape:window-height="744"
     inkscape:window-x="-4"
     inkscape:window-y="-4"
     inkscape:window-maximized="1" />
  <metadata
     id="metadata3640">
    <rdf:RDF>
      <cc:Work
         rdf:about="">
        <dc:format>image/svg+xml</dc:format>
        <dc:type
           rdf:resource="http://purl.org/dc/dcmitype/StillImage" />
        <dc:title></dc:title>
      </cc:Work>
    </rdf:RDF>
  </metadata>
  <g
     inkscape:label="Layer 1"
     inkscape:groupmode="layer"
     id="layer1"
     transform="translate(-1177.6923,-989.49652)">
    <g
       transform="translate(1132.5351,961.41022)"
       id="layer1-4"
       inkscape:label="Layer 1">
      <g
         transform="matrix(0.8260872,0,0,0.8260872,16.906754,-58.640121)"
         id="g3272">
        <path
           id="path2472"
           style="fill:#c7070f;fill-opacity:1;fill-rule:evenodd;stroke:none"
           d="m 61.65957,111.37871 c -3.0465,0.084 -6.0075,0.6765 -8.799,1.9455 l 3.6375,6.4305 c 1.608,-0.6765 3.4695,-1.0995 5.1615,-1.0995 0.5925,0 1.0995,0.084 1.692,0.168 6.9375,0.5085 12.522,7.701 12.015,14.553 -0.5925,7.53 -6.6,12.2685 -13.707,12.6075 -0.423,0 -0.9315,0 -1.3545,0 -4.653,-1.0155 -8.544,-2.961 -10.8285,-7.362 l -7.6155,-13.1985 c -1.0155,3.0465 -1.353,5.9235 -1.0995,9.054 1.185,9.984 8.799,17.598 18.783,18.783 0.6765,0.084 1.4385,0.084 2.115,0.084 11.592,-0.1695 20.898,-9.3915 21.0675,-20.898 -0.1695,-11.4225 -8.8845,-20.2215 -19.968,-21.0675 -0.3375,0 -0.7605,0 -1.0995,0 z m 0,48.057 c -14.8905,0 -27.159,-12.183 -27.159,-26.9895 0,-7.2765 2.8755,-13.8765 7.614,-18.783 l 12.9465,22.3365 c 0.591,1.014 1.437,1.9455 2.4525,2.7075 1.185,0.6765 2.538,1.1835 3.9765,1.1835 0.0855,0 0.1695,0 0.1695,0 5.2455,0.1695 8.883,-5.499 7.107,-10.152 -1.0155,-2.961 -3.9765,-4.9065 -7.107,-4.9065 -0.423,0 -0.846,0 -1.269,0.084 -2.2845,0.2535 -4.569,2.199 -5.5845,4.23 l -10.2375,-17.7675 c 4.653,-3.807 10.6605,-6.0915 17.091,-6.0915 14.976,0 27.159,12.183 27.159,27.159 0,14.8065 -12.183,26.9895 -27.159,26.9895"
           inkscape:connector-curvature="0" />
        <path
           id="path2474"
           style="fill:#c7070f;fill-opacity:1;fill-rule:evenodd;stroke:none"
           d="m 130.78557,135.66071 -4.146,-7.023 c -0.1695,0.678 -0.2535,1.3545 -0.2535,2.1165 l 0,19.3755 7.4445,0 0,-9.138 -3.045,-5.331 z m 44.0805,-1.4385 3.9765,6.8535 0,8.9685 -0.0855,0 0,0.0855 -8.376,0 0,-23.6055 4.485,7.698 z m 0,-3.7215 3.9765,6.768 0,-4.3995 c 0,-3.2145 5.415,-3.468 5.415,0 l 0,17.175 4.992,0 0,0.0855 4.314,0 0,-17.2605 c 0,-3.2145 5.4165,-3.468 5.4165,0 l 0,17.2605 8.376,0 0,-17.6835 c 0,-9.561 -12.015,-11.337 -16.4145,-5.331 -2.7075,-3.7215 -8.292,-4.4835 -12.1845,-2.283 l 0,-1.185 -7.8675,0 3.9765,6.8535 z m 46.704,8.2905 -9.138,-15.8205 c 0,9.0525 0,18.105 0,27.0735 l 7.446,0 0,-1.0995 c 1.692,0.846 3.6375,1.353 5.7525,1.353 7.1925,0 13.1145,-5.922 13.1145,-13.1985 0,-7.191 -5.922,-13.113 -13.1145,-13.113 -2.115,0 -4.0605,0.507 -5.7525,1.353 l 0,-10.914 -7.446,0 c 0,3.045 0,1.6905 0,4.737 l 9.3075,15.9915 c 0.6765,-1.3545 2.199,-2.3685 3.891,-2.3685 2.37,0 4.3155,1.9455 4.3155,4.314 0,2.3685 -1.9455,4.3155 -4.3155,4.3155 -1.8615,0 -3.384,-1.0155 -4.0605,-2.6235 z m 29.781,0.2535 -6.09,-10.491 c -2.031,2.2845 -3.216,5.2455 -3.216,8.5455 0,7.2765 5.9235,13.1985 13.1985,13.1985 7.1925,0 13.1145,-5.922 13.1145,-13.1985 0,-7.191 -5.922,-13.113 -13.1145,-13.113 -3.3,0 -6.261,1.1835 -8.6295,3.2145 l 4.737,8.037 c 0.678,-1.4385 2.2005,-2.4525 3.8925,-2.4525 2.37,0 4.3155,1.9455 4.3155,4.314 0,2.3685 -1.9455,4.3155 -4.3155,4.3155 -1.692,0 -3.2145,-0.9315 -3.8925,-2.37 z m -95.946,4.2315 c 1.3545,-0.5085 2.2845,-1.7775 2.5395,-3.216 l 8.6295,0 c -1.269,5.331 -5.6685,9.3915 -11.169,10.1535 -0.507,0 -1.0995,0.084 -1.692,0.084 -7.191,0 -13.113,-5.922 -13.113,-13.1985 0,-2.877 0.93,-5.415 2.454,-7.614 l 6.768,11.5905 c 0.6765,1.5225 2.115,2.538 3.891,2.538 0.5925,0 1.185,-0.084 1.692,-0.3375 z m 0,-8.4615 2.6235,0 c -0.1695,-1.6065 -1.185,-2.877 -2.6235,-3.468 -0.507,-0.255 -1.0995,-0.339 -1.692,-0.339 -2.283,0 -4.0605,1.608 -4.23,3.807 l 5.922,0 z m 0,-10.7445 c -0.507,0 -1.0995,-0.084 -1.692,-0.084 -3.552,0 -6.9375,1.5225 -9.306,3.975 l 6.261,10.83 0,-0.5925 16.1595,0 c 0,-0.423 0.0855,-0.7605 0.0855,-1.0995 0,-6.5985 -5.0775,-12.183 -11.508,-13.029 z m -24.6195,7.8675 -3.1305,-5.3295 c 0.846,-1.0155 1.9455,-1.692 3.1305,-2.031 0.6765,-0.2535 1.437,-0.3375 2.115,-0.3375 l 6.0075,0 0,6.9375 -1.6935,0 c -1.9455,0 -3.384,1.353 -3.384,3.384 l 0,2.6235 -3.045,-5.247 z m -25.89,6.8535 -9.2235,-15.8205 c 0,9.0525 0,18.105 0,27.0735 l 7.446,0 0,-1.0995 c 1.7775,0.846 3.723,1.353 5.7525,1.353 7.1925,0 13.2,-5.922 13.2,-13.1985 0,-7.191 -6.0075,-13.113 -13.2,-13.113 -2.0295,0 -3.975,0.507 -5.7525,1.353 l 0,-10.914 -7.446,0 c 0,3.045 0,1.6905 0,4.737 l 9.3075,15.9915 c 0.6765,-1.3545 2.199,-2.3685 3.891,-2.3685 2.37,0 4.3155,1.9455 4.3155,4.314 0,2.3685 -1.9455,4.3155 -4.3155,4.3155 -1.776,0 -3.2985,-1.0155 -3.975,-2.6235"
           inkscape:connector-curvature="0" />
      </g>
    </g>
  </g>
</svg>
