<?xml version="1.0" encoding="UTF-8"?><svg id="Layer_1" xmlns="http://www.w3.org/2000/svg" viewBox="0 0 351.25 160.46"><defs><style>.cls-1{fill:#db3f28;}.cls-2{fill:#6f6f71;}</style></defs><g id="_db3f28ff"><path class="cls-1" d="M142.02,3.36C157.52.14,173.44-.33,189.22.18c12.88.92,25.88,1.6,38.45,4.8,13.57,3.44,26.64,9.57,37.26,18.78,3.68,3.09,6.87,6.87,8.64,11.38,3.6,8.41,1.47,18.48-4.16,25.48-4.2,5.16-9.31,9.67-15.11,12.94-10.7,5.63-22.29,9.37-34.1,11.84-18.68,4.28-37.92,6.25-57.08,5.72,1.02-3.55,3.28-6.51,5.16-9.63,5.23-8.69,11.18-16.92,16.61-25.48,11.01-16.04,23.61-30.88,35.41-46.33-9.54,6.54-17.4,15.15-25.63,23.19-7.06,7.61-14.6,14.81-21.06,22.95-8.75,11.35-17.52,22.7-25.88,34.33-7.12-.56-14.25-1.75-21.17-3.5,4.8-7.91,11.71-14.19,18.02-20.87,5.42-5.57,11.2-10.78,16.79-16.18,12.81-11.38,26.71-21.44,40.66-31.36,4.06-2.91,8.42-5.45,12.21-8.72-11.54,4.99-22.44,11.36-33.41,17.49-14.67,8.12-28.12,18.27-40.89,29.08-9.97,8-19.26,16.79-28.42,25.68-1.22,1.27-3.04.23-4.44-.08-10.96-3.87-20.87-10.96-27.7-20.4-4.69-6.2-5.01-14.94-2.17-21.98,4.81-10.3,14.06-17.8,23.93-23.03,12.84-6.42,26.87-10.06,40.88-12.92M157.23,5.42c-14.53,2.12-28.99,5.27-42.81,10.29-9.64,3.6-19.06,9.9-23.25,19.65-2.3,4.81-1.64,10.62.96,15.17,1.84,3.8,5.72,6.89,10.13,6.4,4.68-.75,8.79-3.38,12.97-5.47,6.83-4.02,14.1-7.2,21.12-10.87,22.62-11.14,45.41-22.06,69.07-30.87,2.38-.86,4.93-1.46,6.96-3.06-18.22-2.81-36.8-2.52-55.15-1.24M204.92,44.14c-3.38,6.92-7.41,13.52-10.41,20.62-.91,2.82-2.4,6.22-.49,8.96,2,1.72,4.8,1.39,7.22,1.07,9.22-1.37,18.15-4.17,26.88-7.39,8.69-3.23,16.77-8.18,23.47-14.6,4-3.7,6.29-8.98,6.91-14.34.21-6.35-3.53-12.12-8.48-15.82-7.56-5.91-16.43-10.26-25.69-12.71-7.42,10.83-13.13,22.7-19.41,34.21Z"/></g><g id="_6f6f71ff"><path class="cls-2" d="M0,122.31c.49-3.45,1.87-8.43,6.23-8.27,4.03.14,8.61-1.01,12.25,1.1,1.19,2.58.33,5.69.78,8.47,2.25-2.92,2.57-7.55,6.15-9.22,4.51-.7,9.21-.65,13.72.02,4.19,1.04,5.41,5.56,6.54,9.14,1.43-2.24,2.39-4.73,3.65-7.06,1.46-2.87,5.23-2.37,7.92-2.5,3.74.33,8.26-.63,11.21,2.28,3.15,2.77,3.25,7.32,3.29,11.2-.14,9.65.14,19.3-.14,28.95,0,4.43-5.47,2.85-8.33,3.34-2.62-.28-7.15.99-8.02-2.46-.84-9.12.28-18.35-.51-27.47-.91-4.02-6.16-2.59-9.18-3.1-.11,9.26.04,18.52-.05,27.78-.07,1.62-.05,3.71-1.63,4.67-4.35,1.26-9.01.99-13.43.23-1.19-.94-1.69-2.46-1.63-3.94-.2-7.46.26-14.94-.17-22.39-.29-2.01-.14-4.68-2.21-5.79-2.31-.68-4.77-.38-7.14-.55-.71,9.88-.02,19.8-.34,29.69-.07,1.17-.11,3.04-1.8,2.89-4.52.46-9.08.32-13.58-.24-1.37-10.8-.28-21.77-.44-32.63.02-1.95-2-2.88-3.14-4.14Z"/><path class="cls-2" d="M119.71,122.47c1.34-2.86,1.88-7.37,5.63-7.96,4.47-.63,9.08-.59,13.49.41.92,6.14.53,12.38.68,18.57,1.38-2.12,2.17-4.9,4.44-6.26,3.62-.95,7.45-.55,11.15-.42,3.83.1,6.32,4.03,6.15,7.59-.07,8.31.26,16.64-.26,24.94-4.45.31-8.92.39-13.37-.04-.43-6.9.35-13.84-.42-20.7-.29-3.02-4.48-3.23-6.55-1.87-1.36,1.54-1.33,3.72-1.41,5.66-.1,5.64.26,11.29-.23,16.91-4.79.75-9.73,1.17-14.51.08-1.6-1-1.11-3.26-1.3-4.85.16-9.04.51-18.08.25-27.12.32-2.48-2.17-3.6-3.74-4.94Z"/><path class="cls-2" d="M169.56,114.84c4.51-.97,9.16-.78,13.71-.12.61,2.84.51,5.76-.1,8.6-4.61.67-9.3.58-13.91-.06-.65-2.8-.46-5.67.3-8.42Z"/><path class="cls-2" d="M255.49,122.44c1.06-2.99,2.04-7.48,5.84-7.82,3.86-.3,7.8-.46,11.62.22,3.16,1.04,2.1,5.07,2.35,7.61-.46,12.3-.25,24.61-.38,36.92-5.2.05-10.41.19-15.61.03-.28-2.65-.37-5.3-.4-7.96-.97,2.2-1.8,4.49-3.16,6.48-1.45,2.11-4.32,1.47-6.5,1.75-3.89-.08-8.69.66-11.44-2.78-4.46-5.05-2.64-12.31-3.05-18.43-.52-4.59,2.11-9.41,6.6-10.88,5.84-1.81,12.08-.3,18.08-1.04-1.28-1.39-2.89-2.52-3.95-4.1M256,135.2c-2.02.75-5.04.9-5.66,3.42-.83,2.91-.95,6.39.81,8.99,1.8,2.46,5.2,1.25,7.79,1.54.03-7.3.12-14.61-.03-21.91-1.26,2.54-1.99,5.29-2.91,7.96Z"/><path class="cls-2" d="M78.3,135.05c.82-3.06,1.65-7.36,5.07-8.41,8.29-.6,16.62.1,24.92.11,3.8-.26,7.74,2.74,7.61,6.73.09,8.44.06,16.92-.34,25.34-4.06,1.68-8.93.56-13.29.48-.71-4.16-.44-8.39-.42-12.58-1.7-.75-3.51-1.55-5.41-1.05-1.97.12-3.11,2.82-1.89,4.36,2.15,1.13,4.67,1.01,7.01,1.46-.88,2.9-2.56,5.54-4.69,7.67-4.62.56-9.6,1.38-14.08-.25-7.24-4.65-5.33-18.73,3.56-20.28,4.95-.45,9.95.05,14.91-.42.06-.66.17-1.98.23-2.63-7.73-.23-15.47.03-23.19-.53Z"/><path class="cls-2" d="M169.64,126.96c3.83-.38,7.94-.77,11.64.5,4.38,2.35,2.67,7.99,2.98,12-.52,6.67,1.12,13.65-.97,20.09-3.9-.07-7.85.4-11.72-.27-1.44-.57-.74-2.59-1.05-3.79-.2-5.64.43-11.33-.3-16.94-.21-1.94-2.28-2.57-3.65-3.55.61-2.75.62-6.18,3.07-8.04Z"/><path class="cls-2" d="M190.6,127.85c1-1.54,3.05-.99,4.6-1.19,2.88.12,6.09-.38,8.66,1.2,2.22,1.42,2.18,4.32,2.8,6.6,1.42-2.36,2.31-5.26,4.59-6.95,3.81-1.37,8.01-.69,11.98-.6,3.91-.12,5.73,4.26,5.7,7.58.13,8.28.11,16.56-.04,24.84-4.47.15-8.94.14-13.41.03-.64-6.87.18-13.79-.43-20.65-1.25-3.69-6.03-2.52-9.01-2.63-.18,6.47,0,12.94-.03,19.41-.3,1.21.38,3.24-1.07,3.82-3.5.27-7.03.15-10.53.09-1.81.34-1.99-1.7-2.1-2.95-.37-5.95.31-11.94-.26-17.88-.13-1.92-2.26-2.51-3.55-3.5.45-2.45.62-5.12,2.1-7.22Z"/><path class="cls-2" d="M313.77,135.54c.59-3.29,1.39-8.5,5.68-8.55,7.85-.2,15.72-.17,23.57-.01,3.75-.09,6.88,2.38,8.23,5.77v27.71h-13.2c-1.83-4.42-.95-9.27-1.32-13.91-2.46-.55-5.5-1.08-7.36,1.12-1.21,4.34,4.56,3.08,6.77,4.94-.25,3.16-2.84,5.66-4.93,7.85h-11.68c-8.54-3.67-7.76-18.94,1.38-21.24,5.17-.74,10.43-.03,15.63-.59-.09-.7-.27-2.11-.36-2.82-7.47.02-14.96.43-22.41-.27Z"/><path class="cls-2" d="M278.5,133.56c.37-2.23.78-4.99,2.93-6.22,3.5-.66,7.17-.61,10.67.03,2.48.4,3.28,3.1,4.51,4.91,1.33-1.81,2.21-4.54,4.72-4.97,3.7-.7,7.48-.15,11.19.18-1.02,2.8-1.66,6.39-4.47,7.96-3.88.89-7.91.29-11.85.22-.37,6.27-.4,12.56-.34,18.84.11,2.07-.56,4.05-1.35,5.94h-3.74c-2.78-.17-5.54-.5-8.27-.98-.95-7.15-.23-14.37-.7-21.55-1.16-1.35-3.69-2.23-3.3-4.36Z"/></g></svg>